Coordinates
version=1
nRows=12
nColumns=24
inDegrees=yes

Units are S.I. units (second, meters, Newtons, ...)
Angles are in degrees.

endheader
time	pelvis_tilt	pelvis_list	pelvis_rotation	pelvis_tx	pelvis_ty	pelvis_tz	hip_flexion_r	hip_adduction_r	hip_rotation_r	knee_angle_r	ankle_angle_r	subtalar_angle_r	mtp_angle_r	hip_flexion_l	hip_adduction_l	hip_rotation_l	knee_angle_l	ankle_angle_l	subtalar_angle_l	mtp_angle_l	lumbar_extension	lumbar_bending	lumbar_rotation
      1.76650000	     -0.27388281	      3.88429032	     -0.71880037	      1.43995915	      1.02266406	      0.24360106	     15.42660869	     -2.28682943	     -0.00049101	    -66.56621401	      3.38358270	    -19.18532844	      2.16375630	      4.78768870	      8.55968470	      1.27951229	     -9.93213883	      3.33914310	    -13.55337964	      7.48264004	      0.22529734	     -5.03315126	      3.42104991
      1.77066667	     -0.28066050	      3.79675950	     -0.41595860	      1.44472971	      1.02309736	      0.24281315	     15.88697316	     -2.17832873	     -0.14597131	    -66.15915446	      3.56303292	    -19.29856204	      2.12618035	      4.32874972	      8.50625619	      1.55910008	     -9.62513127	      3.38008359	    -13.43342413	      7.46389839	      0.21588646	     -4.93842957	      3.31233118
      1.77483333	     -0.27183970	      3.70120262	     -0.14696500	      1.44948503	      1.02353902	      0.24206839	     16.32735097	     -2.04961574	     -0.24368174	    -65.71076500	      3.62941154	    -19.48210530	      2.02149424	      3.82648833	      8.44808862	      1.91033126	     -9.26649084	      3.42894317	    -13.49448884	      7.41148920	      0.17223346	     -4.82764583	      2.92989813
      1.77900000	     -0.29296539	      3.61567031	      0.15236849	      1.45426089	      1.02389358	      0.24130173	     16.78818694	     -1.95312865	     -0.38009044	    -65.24800780	      3.78418060	    -19.58629215	      1.98092096	      3.38418231	      8.38674982	      2.18189927	     -8.95616158	      3.45691291	    -13.37219076	      7.39314706	      0.18116961	     -4.73083066	      2.81273312
      1.78316667	     -0.27710030	      3.52676466	      0.43205659	      1.45896424	      1.02426762	      0.24057026	     17.20757132	     -1.84664071	     -0.48687214	    -64.75060744	      3.84679410	    -19.74942654	      1.85686507	      2.88599089	      8.32584628	      2.54161662	     -8.60997812	      3.49743352	    -13.44830672	      7.33578568	      0.13095354	     -4.63972739	      2.39896036
      1.78733333	     -0.30661351	      3.42654574	      0.71687025	      1.46369112	      1.02456011	      0.23986388	     17.66150848	     -1.73060144	     -0.59329396	    -64.21860520	      3.97820892	    -19.83537985	      1.78755755	      2.46532347	      8.23960735	      2.82859027	     -8.31820474	      3.53884562	    -13.37715211	      7.30562892	      0.13501179	     -4.54391318	      2.25955585
      1.79150000	     -0.30527278	      3.33926315	      0.99771811	      1.46841620	      1.02486143	      0.23914967	     18.07476094	     -1.63888921	     -0.70129679	    -63.66326583	      4.06404049	    -19.95018838	      1.68774288	      1.99406513	      8.16658837	      3.13565237	     -7.98968754	      3.58577601	    -13.37954483	      7.26482440	      0.11527486	     -4.45051883	      1.97275728
      1.79566667	     -0.32000151	      3.26919597	      1.28506874	      1.47311159	      1.02507815	      0.23842156	     18.50841833	     -1.58055334	     -0.81915781	    -63.10985003	      4.21560522	    -20.01884134	      1.63972707	      1.56376184	      8.10553678	      3.40045498	     -7.69840529	      3.61777047	    -13.26963788	      7.24691587	      0.10387745	     -4.35276766	      1.84726247
      1.79983333	     -0.31777671	      3.19227091	      1.55557737	      1.47782201	      1.02531505	      0.23776673	     18.90661870	     -1.49897880	     -0.90026857	    -62.50681602	      4.29644712	    -20.12562230	      1.46872252	      1.08867864	      8.03654022	      3.75708864	     -7.35865082	      3.61793110	    -13.37568670	      7.17948680	      0.07495037	     -4.29176045	      1.43720606
      1.80400000	     -0.32848354	      3.10260391	      1.84181611	      1.48251128	      1.02551430	      0.23708183	     19.30481052	     -1.42192759	     -1.00976938	    -61.86777947	      4.39688656	    -20.15488923	      1.41187474	      0.66746541	      7.94363360	      4.01249308	     -7.09392535	      3.68409316	    -13.28631749	      7.15974683	      0.06814446	     -4.19825688	      1.34510390
      1.80816667	     -0.34495608	      3.01340260	      2.12818534	      1.48717495	      1.02565977	      0.23641330	     19.70571162	     -1.34711720	     -1.11277732	    -61.21183294	      4.49488105	    -20.20836813	      1.34771669	      0.24922491	      7.84837456	      4.29432653	     -6.82222621	      3.74039654	    -13.23245085	      7.13841845	      0.05802768	     -4.10319205	      1.14848275
      1.81233333	     -0.34429606	      2.96743743	      2.38200966	      1.49184425	      1.02577496	      0.23579413	     20.09247320	     -1.31456327	     -1.17444802	    -60.56105884	      4.58053719	    -20.26755081	      1.17840678	     -0.22325212	      7.80025454	      4.63371855	     -6.47160987	      3.72013659	    -13.34728393	      7.07870290	      0.02431241	     -4.06438832	      0.78313967
